<svg width="28" height="28" viewBox="0 0 28 28" fill="none" xmlns="http://www.w3.org/2000/svg">
<circle cx="14" cy="14" r="14" fill="#1ea2a1"/>
<path d="M21.7696 12.7846C22.1602 12.3941 22.1602 11.7609 21.7696 11.3704C21.3791 10.9799 20.7459 10.9799 20.3554 11.3704L21.7696 12.7846ZM13.5313 19.6088L12.8242 20.3159C13.2147 20.7064 13.8478 20.7064 14.2384 20.3159L13.5313 19.6088ZM6.70712 11.3704C6.31659 10.9799 5.68343 10.9799 5.2929 11.3704C4.90238 11.7609 4.90238 12.3941 5.2929 12.7846L6.70712 11.3704ZM20.3554 11.3704L12.8242 18.9017L14.2384 20.3159L21.7696 12.7846L20.3554 11.3704ZM14.2384 18.9017L6.70712 11.3704L5.2929 12.7846L12.8242 20.3159L14.2384 18.9017Z" fill="white"/>
</svg>
