<svg width="36" height="35" viewBox="0 0 36 35" fill="none" xmlns="http://www.w3.org/2000/svg">
<path d="M1.6 31.88C1.28355 31.88 0.974203 31.9738 0.711084 32.1497C0.447965 32.3255 0.242894 32.5754 0.121793 32.8677C0.000693254 33.1601 -0.0309921 33.4818 0.0307443 33.7922C0.0924806 34.1025 0.244866 34.3876 0.46863 34.6114C0.692394 34.8351 0.977489 34.9875 1.28786 35.0493C1.59823 35.111 1.91994 35.0793 2.2123 34.9582C2.50466 34.8371 2.75454 34.632 2.93035 34.3689C3.10616 34.1058 3.2 33.7965 3.2 33.48C3.2 33.0557 3.03143 32.6487 2.73137 32.3486C2.43131 32.0486 2.02435 31.88 1.6 31.88" fill="#44C1F0" fill-opacity="0.45"/>
<path d="M12.21 31.88C11.8936 31.88 11.5842 31.9738 11.3211 32.1497C11.058 32.3255 10.8529 32.5754 10.7318 32.8677C10.6107 33.1601 10.579 33.4818 10.6408 33.7922C10.7025 34.1025 10.8549 34.3876 11.0786 34.6114C11.3024 34.8351 11.5875 34.9875 11.8979 35.0493C12.2082 35.111 12.5299 35.0793 12.8223 34.9582C13.1147 34.8371 13.3646 34.632 13.5404 34.3689C13.7162 34.1058 13.81 33.7965 13.81 33.48C13.81 33.0557 13.6414 32.6487 13.3414 32.3486C13.0413 32.0486 12.6344 31.88 12.21 31.88" fill="#44C1F0" fill-opacity="0.65"/>
<path d="M22.83 31.88C22.5136 31.88 22.2042 31.9738 21.9411 32.1497C21.678 32.3255 21.4729 32.5754 21.3518 32.8677C21.2307 33.1601 21.199 33.4818 21.2608 33.7922C21.3225 34.1025 21.4749 34.3876 21.6986 34.6114C21.9224 34.8351 22.2075 34.9875 22.5179 35.0493C22.8282 35.111 23.1499 35.0793 23.4423 34.9582C23.7347 34.8371 23.9845 34.632 24.1604 34.3689C24.3362 34.1058 24.43 33.7965 24.43 33.48C24.43 33.0557 24.2614 32.6487 23.9614 32.3486C23.6613 32.0486 23.2544 31.88 22.83 31.88" fill="#44C1F0" fill-opacity="0.85"/>
<path d="M33.46 31.88C33.1436 31.88 32.8342 31.9738 32.5711 32.1497C32.308 32.3255 32.1029 32.5754 31.9818 32.8677C31.8607 33.1601 31.829 33.4818 31.8908 33.7922C31.9525 34.1025 32.1049 34.3876 32.3286 34.6114C32.5524 34.8351 32.8375 34.9875 33.1479 35.0493C33.4582 35.111 33.7799 35.0793 34.0723 34.9582C34.3647 34.8371 34.6146 34.632 34.7904 34.3689C34.9662 34.1058 35.06 33.7965 35.06 33.48C35.06 33.0557 34.8914 32.6487 34.5914 32.3486C34.2913 32.0486 33.8844 31.88 33.46 31.88" fill="#44C1F0"/>
<path d="M1.6 21.26C1.28355 21.26 0.974203 21.3538 0.711084 21.5296C0.447965 21.7055 0.242894 21.9553 0.121793 22.2477C0.000693254 22.5401 -0.0309921 22.8618 0.0307443 23.1721C0.0924806 23.4825 0.244866 23.7676 0.46863 23.9914C0.692394 24.2151 0.977489 24.3675 1.28786 24.4293C1.59823 24.491 1.91994 24.4593 2.2123 24.3382C2.50466 24.2171 2.75454 24.012 2.93035 23.7489C3.10616 23.4858 3.2 23.1765 3.2 22.86C3.2 22.4357 3.03143 22.0287 2.73137 21.7286C2.43131 21.4286 2.02435 21.26 1.6 21.26" fill="#44C1F0" fill-opacity="0.45"/>
<path d="M1.6 10.63C1.28355 10.63 0.974203 10.7238 0.711084 10.8997C0.447965 11.0755 0.242894 11.3253 0.121793 11.6177C0.000693254 11.9101 -0.0309921 12.2318 0.0307443 12.5421C0.0924806 12.8525 0.244866 13.1376 0.46863 13.3614C0.692394 13.5851 0.977489 13.7375 1.28786 13.7993C1.59823 13.861 1.91994 13.8293 2.2123 13.7082C2.50466 13.5871 2.75454 13.382 2.93035 13.1189C3.10616 12.8558 3.2 12.5465 3.2 12.23C3.2 11.8057 3.03143 11.3987 2.73137 11.0986C2.43131 10.7986 2.02435 10.63 1.6 10.63Z" fill="#44C1F0" fill-opacity="0.45"/>
<path d="M1.6 0C1.28355 0 0.974203 0.0938392 0.711084 0.26965C0.447965 0.44546 0.242894 0.695347 0.121793 0.987709C0.000693254 1.28007 -0.0309921 1.60177 0.0307443 1.91214C0.0924806 2.22251 0.244866 2.50761 0.46863 2.73137C0.692394 2.95514 0.977489 3.10752 1.28786 3.16926C1.59823 3.23099 1.91994 3.19931 2.2123 3.07821C2.50466 2.95711 2.75454 2.75203 2.93035 2.48891C3.10616 2.2258 3.2 1.91645 3.2 1.6C3.19738 1.17647 3.02796 0.771019 2.72847 0.471527C2.42898 0.172036 2.02354 0.0026226 1.6 0" fill="#44C1F0" fill-opacity="0.45"/>
<path d="M33.45 3.21001C33.7665 3.21001 34.0758 3.11617 34.3389 2.94036C34.602 2.76455 34.8071 2.51466 34.9282 2.2223C35.0493 1.92994 35.081 1.60823 35.0193 1.29786C34.9575 0.987495 34.8051 0.702403 34.5814 0.478639C34.3576 0.254875 34.0725 0.10249 33.7622 0.040754C33.4518 -0.0209823 33.1301 0.010703 32.8377 0.131803C32.5454 0.252903 32.2955 0.457979 32.1197 0.721098C31.9438 0.984216 31.85 1.29356 31.85 1.61001C31.85 2.03436 32.0186 2.44132 32.3186 2.74138C32.6187 3.04144 33.0257 3.21001 33.45 3.21001" fill="#44C1F0"/>
<path d="M22.83 0C22.5136 0 22.2042 0.0938392 21.9411 0.26965C21.678 0.44546 21.4729 0.695347 21.3518 0.987709C21.2307 1.28007 21.199 1.60177 21.2608 1.91214C21.3225 2.22251 21.4749 2.50761 21.6986 2.73137C21.9224 2.95514 22.2075 3.10752 22.5179 3.16926C22.8282 3.23099 23.1499 3.19931 23.4423 3.07821C23.7347 2.95711 23.9845 2.75203 24.1604 2.48891C24.3362 2.2258 24.43 1.91645 24.43 1.6C24.43 1.17566 24.2614 0.76869 23.9614 0.468632C23.6613 0.168574 23.2544 0 22.83 0" fill="#44C1F0" fill-opacity="0.85"/>
<path d="M12.21 0C11.8936 0 11.5842 0.0938392 11.3211 0.26965C11.058 0.44546 10.8529 0.695347 10.7318 0.987709C10.6107 1.28007 10.579 1.60177 10.6408 1.91214C10.7025 2.22251 10.8549 2.50761 11.0786 2.73137C11.3024 2.95514 11.5875 3.10752 11.8979 3.16926C12.2082 3.23099 12.5299 3.19931 12.8223 3.07821C13.1147 2.95711 13.3646 2.75203 13.5404 2.48891C13.7162 2.2258 13.81 1.91645 13.81 1.6C13.81 1.17566 13.6414 0.76869 13.3414 0.468632C13.0413 0.168574 12.6344 0 12.21 0" fill="#44C1F0" fill-opacity="0.65"/>
<path d="M33.45 10.63C33.1336 10.63 32.8242 10.7238 32.5611 10.8997C32.298 11.0755 32.0929 11.3253 31.9718 11.6177C31.8507 11.9101 31.819 12.2318 31.8808 12.5421C31.9425 12.8525 32.0949 13.1376 32.3186 13.3614C32.5424 13.5851 32.8275 13.7375 33.1379 13.7993C33.4482 13.861 33.7699 13.8293 34.0623 13.7082C34.3547 13.5871 34.6045 13.382 34.7804 13.1189C34.9562 12.8558 35.05 12.5465 35.05 12.23C35.0474 11.8065 34.878 11.401 34.5785 11.1015C34.279 10.802 33.8735 10.6326 33.45 10.63" fill="#44C1F0"/>
<path d="M33.45 21.26C33.1336 21.26 32.8242 21.3538 32.5611 21.5296C32.298 21.7055 32.0929 21.9553 31.9718 22.2477C31.8507 22.5401 31.819 22.8618 31.8808 23.1721C31.9425 23.4825 32.0949 23.7676 32.3186 23.9914C32.5424 24.2151 32.8275 24.3675 33.1379 24.4293C33.4482 24.491 33.7699 24.4593 34.0623 24.3382C34.3547 24.2171 34.6045 24.012 34.7804 23.7489C34.9562 23.4858 35.05 23.1765 35.05 22.86C35.05 22.4357 34.8814 22.0287 34.5814 21.7286C34.2813 21.4286 33.8743 21.26 33.45 21.26" fill="#44C1F0"/>
<path d="M22.83 10.63C22.5136 10.63 22.2042 10.7238 21.9411 10.8997C21.678 11.0755 21.4729 11.3253 21.3518 11.6177C21.2307 11.9101 21.199 12.2318 21.2608 12.5421C21.3225 12.8525 21.4749 13.1376 21.6986 13.3614C21.9224 13.5851 22.2075 13.7375 22.5179 13.7993C22.8282 13.861 23.1499 13.8293 23.4423 13.7082C23.7347 13.5871 23.9845 13.382 24.1604 13.1189C24.3362 12.8558 24.43 12.5465 24.43 12.23C24.43 11.8057 24.2614 11.3987 23.9614 11.0986C23.6613 10.7986 23.2544 10.63 22.83 10.63" fill="#44C1F0" fill-opacity="0.85"/>
<path d="M12.21 10.63C11.8936 10.63 11.5842 10.7238 11.3211 10.8997C11.058 11.0755 10.8529 11.3253 10.7318 11.6177C10.6107 11.9101 10.579 12.2318 10.6408 12.5421C10.7025 12.8525 10.8549 13.1376 11.0786 13.3614C11.3024 13.5851 11.5875 13.7375 11.8979 13.7993C12.2082 13.861 12.5299 13.8293 12.8223 13.7082C13.1147 13.5871 13.3646 13.382 13.5404 13.1189C13.7162 12.8558 13.81 12.5465 13.81 12.23C13.81 11.8057 13.6414 11.3987 13.3414 11.0986C13.0413 10.7986 12.6344 10.63 12.21 10.63" fill="#44C1F0" fill-opacity="0.65"/>
<path d="M22.83 21.26C22.5136 21.26 22.2042 21.3538 21.9411 21.5296C21.678 21.7055 21.4729 21.9553 21.3518 22.2477C21.2307 22.5401 21.199 22.8618 21.2608 23.1721C21.3225 23.4825 21.4749 23.7676 21.6986 23.9914C21.9224 24.2151 22.2075 24.3675 22.5179 24.4293C22.8282 24.491 23.1499 24.4593 23.4423 24.3382C23.7347 24.2171 23.9845 24.012 24.1604 23.7489C24.3362 23.4858 24.43 23.1765 24.43 22.86C24.43 22.4357 24.2614 22.0287 23.9614 21.7286C23.6613 21.4286 23.2544 21.26 22.83 21.26" fill="#44C1F0" fill-opacity="0.85"/>
<path d="M12.21 21.26C11.8936 21.26 11.5842 21.3538 11.3211 21.5296C11.058 21.7055 10.8529 21.9553 10.7318 22.2477C10.6107 22.5401 10.579 22.8618 10.6408 23.1721C10.7025 23.4825 10.8549 23.7676 11.0786 23.9914C11.3024 24.2151 11.5875 24.3675 11.8979 24.4293C12.2082 24.491 12.5299 24.4593 12.8223 24.3382C13.1147 24.2171 13.3646 24.012 13.5404 23.7489C13.7162 23.4858 13.81 23.1765 13.81 22.86C13.81 22.4357 13.6414 22.0287 13.3414 21.7286C13.0413 21.4286 12.6344 21.26 12.21 21.26" fill="#44C1F0" fill-opacity="0.65"/>
</svg>
